<svg width="115" height="35" viewBox="0 0 115 35" fill="none" xmlns="http://www.w3.org/2000/svg">
<path fill-rule="evenodd" clip-rule="evenodd" d="M13.9609 25.9085V22.6051C13.9609 22.5472 13.991 22.4933 14.0399 22.4619L25.0915 15.3373C25.1442 15.3027 25.2131 15.3011 25.2683 15.333C25.3235 15.3649 25.3561 15.4251 25.3523 15.4887L25.1717 19.1522C25.168 19.208 25.1391 19.259 25.0915 19.2883L14.2217 26.053C14.1691 26.0857 14.1026 26.0873 14.0487 26.0573C13.9948 26.0273 13.9609 25.9703 13.9609 25.9085Z" fill="white"/>
<path fill-rule="evenodd" clip-rule="evenodd" d="M13.9609 30.538V27.2346C13.9609 27.1767 13.991 27.1228 14.0399 27.0914L25.0915 19.9668C25.1442 19.9323 25.2131 19.9306 25.2683 19.9625C25.3235 19.9944 25.3561 20.0546 25.3523 20.1183L25.1717 23.7817C25.168 23.8375 25.1391 23.8885 25.0915 23.9179L14.2217 30.6825C14.1691 30.7152 14.1026 30.7168 14.0487 30.6868C13.9948 30.6568 13.9609 30.5998 13.9609 30.538Z" fill="white"/>
<path fill-rule="evenodd" clip-rule="evenodd" d="M13.9609 34.8297V31.5263C13.9609 31.4684 13.991 31.4146 14.0399 31.3832L25.0915 24.2585C25.1442 24.224 25.2131 24.2224 25.2683 24.2543C25.3235 24.2862 25.3561 24.3463 25.3523 24.41L25.1717 28.0735C25.168 28.1292 25.1391 28.1802 25.0915 28.2096L14.2217 34.9743C14.1691 35.0069 14.1026 35.0086 14.0487 34.9785C13.9948 34.9485 13.9609 34.8915 13.9609 34.8297Z" fill="white"/>
<path fill-rule="evenodd" clip-rule="evenodd" d="M0.345703 28.5873V13.9741L12.3431 20.5296V34.8696L0.345703 28.5873Z" fill="white"/>
<path d="M3.067 13.2947C3.15678 13.1375 3.29335 12.9972 3.48636 12.8838C3.65935 12.7821 3.87781 12.7002 4.14407 12.6455C4.38082 12.597 4.64994 12.5733 4.95152 12.5771C5.08479 12.5788 5.21148 12.6362 5.30082 12.7354C5.44839 12.8994 5.59238 13.0381 5.73371 13.1503C5.87792 13.2639 6.01979 13.3607 6.1597 13.4399C6.41137 13.5825 6.70827 13.6854 7.04915 13.7528C7.41991 13.8263 7.8324 13.8671 8.28654 13.8767C8.76011 13.8844 9.27722 13.8636 9.83819 13.8147C10.3478 13.7703 10.8887 13.7097 11.4609 13.6327C11.5308 13.5301 11.6022 13.4256 11.6751 13.3192C11.6774 13.3158 11.6798 13.3124 11.6821 13.3091C11.7989 13.1476 11.9185 12.9767 12.0412 12.7963C12.042 12.7952 12.0427 12.7941 12.0435 12.7929C12.1731 12.6057 12.3101 12.4089 12.4544 12.2025C12.4551 12.2014 12.4559 12.2005 12.4565 12.1995C12.6031 11.993 12.7588 11.7734 12.9259 11.5367C13.0262 11.3875 13.0972 11.2601 13.1307 11.1499C13.1332 11.1419 13.1358 11.1339 13.1387 11.1261C13.1537 11.0848 13.1678 11.049 13.1589 11.0159C13.1577 11.011 13.1564 11.0061 13.1552 11.0013C13.1486 10.9728 13.1256 10.9512 13.0997 10.9275C13.0987 10.9267 13.0977 10.9257 13.0968 10.9248C13.019 10.8526 12.9154 10.7822 12.7884 10.7103C12.6565 10.6355 12.485 10.5558 12.2749 10.4697C12.273 10.4689 12.2713 10.4681 12.2695 10.4673C12.0498 10.3742 11.8046 10.2756 11.5336 10.1712C11.3809 10.1123 11.2686 9.97928 11.2363 9.81845C11.2041 9.65771 11.2561 9.49153 11.3741 9.37792L11.6922 9.07245C11.8175 8.95212 11.998 8.9091 12.164 8.96032C12.5725 9.08623 12.9569 9.20761 13.3172 9.32464C13.6794 9.44218 14.0043 9.55251 14.2919 9.65549C14.5882 9.75769 14.8374 9.84992 15.0399 9.93167L15.0411 9.93223C15.2675 10.0246 15.4341 10.1024 15.542 10.1635C15.7276 10.2687 15.8767 10.3828 15.9921 10.5018C16.1641 10.6764 16.2591 10.8813 16.2818 11.1128C16.3046 11.3078 16.2728 11.5357 16.1644 11.7923C16.0842 11.993 15.9459 12.2316 15.7427 12.5046L15.7423 12.5054C15.5737 12.731 15.4167 12.9498 15.2714 13.1617C15.6742 13.105 16.0635 13.0556 16.439 13.0134L16.4398 13.0133C17.165 12.9331 17.8255 12.8912 18.4209 12.8873L18.4212 12.8873C19.0413 12.8835 19.5931 12.9233 20.0767 13.0054C20.6069 13.094 21.0521 13.2445 21.4143 13.4497C21.6778 13.599 21.8704 13.7557 21.9996 13.9095C22.1712 14.1062 22.2625 14.3035 22.2915 14.4875L22.2892 14.4711L22.3068 14.649L22.2876 14.8308L22.2317 15.0036L22.144 15.1565L22.1598 15.1312C22.0627 15.2912 21.9199 15.4346 21.7209 15.5516C21.512 15.6744 21.2439 15.7675 20.9138 15.8216C20.9132 15.822 20.9126 15.8223 20.912 15.8227C20.6102 15.8698 20.2787 15.87 19.9166 15.819C19.857 15.8105 19.7998 15.7911 19.7483 15.7619L19.6925 15.7303C19.535 15.6411 19.4416 15.4708 19.4506 15.2901C19.4509 15.2771 19.451 15.2652 19.4457 15.2544C19.4398 15.242 19.4342 15.2293 19.4292 15.2165C19.4194 15.1911 19.4038 15.1684 19.3839 15.1473C19.3787 15.1417 19.3735 15.1358 19.3685 15.1299C19.3359 15.0915 19.2961 15.0575 19.2506 15.0266C19.2441 15.0223 19.2378 15.0177 19.2315 15.0131C19.1729 14.9692 19.1112 14.9289 19.0468 14.8924C18.8211 14.7645 18.5455 14.6773 18.2225 14.6241L18.2212 14.6239C17.8697 14.565 17.475 14.54 17.037 14.5467C17.0361 14.5468 17.0353 14.5468 17.0347 14.5468C16.5839 14.5517 16.0954 14.5839 15.5696 14.6432C15.0975 14.6991 14.6025 14.7685 14.0844 14.8516C13.844 15.1985 13.6347 15.5114 13.4554 15.7931C13.263 16.1049 13.1075 16.3824 12.9891 16.6271C12.889 16.8393 12.8206 17.0265 12.7882 17.1903C12.7649 17.3071 12.7601 17.4116 12.7843 17.5037C12.8042 17.5798 12.8461 17.6469 12.9056 17.7074C13.0004 17.8037 13.1277 17.8942 13.2842 17.9828C13.4125 18.0556 13.5337 18.1201 13.6482 18.1763L13.6491 18.1768C13.7653 18.2343 13.8811 18.2874 13.998 18.3367C14.1221 18.3857 14.2554 18.4336 14.3988 18.4812C14.5493 18.5311 14.7199 18.5837 14.9122 18.6396C15.0608 18.6825 15.1809 18.7969 15.231 18.9444C15.281 19.092 15.2572 19.2556 15.1654 19.3819L14.9642 19.6578C14.8611 19.8005 14.6869 19.8739 14.5131 19.8506C14.1513 19.801 13.7843 19.7368 13.4108 19.6571C13.409 19.6565 13.4071 19.656 13.4068 19.6563C13.0375 19.5741 12.6817 19.4808 12.3403 19.3768C11.9914 19.2741 11.6675 19.1619 11.3708 19.0412C11.0621 18.9204 10.7943 18.7952 10.567 18.6664C10.1756 18.4446 9.91608 18.1858 9.7693 17.9105C9.6106 17.6166 9.55854 17.2698 9.63631 16.8673C9.63717 16.8628 9.63814 16.8582 9.63923 16.8535C9.70991 16.5379 9.85723 16.1707 10.0879 15.755C10.0883 15.7542 10.0887 15.7535 10.0892 15.7528C10.1707 15.6079 10.2613 15.4536 10.3614 15.2899C9.90045 15.3423 9.45431 15.3871 9.0232 15.4238C8.27704 15.4906 7.58706 15.5213 6.95322 15.5166L6.9514 15.5165C6.30701 15.5092 5.72841 15.4598 5.2155 15.3697C4.66841 15.2755 4.21083 15.1197 3.84028 14.9098C3.58624 14.7658 3.39673 14.6184 3.26615 14.4752C3.09309 14.2855 2.99977 14.0978 2.9638 13.9246L2.94495 13.7652L2.95554 13.601L2.99734 13.4411L3.067 13.2947Z" fill="white"/>
<path fill-rule="evenodd" clip-rule="evenodd" d="M8.94232 25.8195L8.89315 33.5744L5.28845 32.0294L2.74241 30.3551L2.91211 22.9596L8.94232 25.8195Z" fill="#250101"/>
<path fill-rule="evenodd" clip-rule="evenodd" d="M2.93108 22.9649C3.94518 21.8389 5.6224 21.4779 7.04322 22.1889C8.46395 22.8999 9.1835 24.4603 8.89437 25.9491L2.93108 22.9649Z" fill="#250101"/>
<path d="M46.584 33.384C45.6667 33.384 44.8027 33.256 43.992 33C43.2027 32.7227 42.5093 32.296 41.912 31.72C41.3147 31.1227 40.8453 30.3653 40.504 29.448C40.1627 28.5307 39.992 27.4213 39.992 26.12C39.992 24.6267 40.216 23.2507 40.664 21.992C41.112 20.7333 41.7307 19.6453 42.52 18.728C43.3307 17.8107 44.28 17.096 45.368 16.584C46.456 16.072 47.64 15.816 48.92 15.816C49.7093 15.816 50.4453 15.9227 51.128 16.136C51.832 16.328 52.44 16.616 52.952 17C53.4853 17.384 53.9227 17.8427 54.264 18.376C54.6053 18.9093 54.8293 19.5067 54.936 20.168L51.16 21.608C50.968 20.9467 50.7013 20.424 50.36 20.04C50.04 19.6347 49.4747 19.432 48.664 19.432C46.808 19.432 45.6453 20.6053 45.176 22.952L44.6 25.8C44.4933 26.2907 44.44 26.7387 44.44 27.144C44.44 27.9333 44.632 28.5733 45.016 29.064C45.4213 29.5333 46.072 29.768 46.968 29.768C47.3947 29.768 47.768 29.704 48.088 29.576C48.408 29.448 48.6853 29.2667 48.92 29.032C49.176 28.7973 49.4107 28.52 49.624 28.2C49.8373 27.88 50.0613 27.5173 50.296 27.112L53.72 28.712C52.9733 30.2693 51.992 31.4427 50.776 32.232C49.5813 33 48.184 33.384 46.584 33.384ZM60.6365 33C58.0125 33 56.7005 31.944 56.7005 29.832C56.7005 29.6613 56.7112 29.448 56.7325 29.192C56.7538 28.936 56.7858 28.6907 56.8285 28.456L58.5565 19.784H56.1885L56.8925 16.2H58.0445C58.7272 16.2 59.1858 16.0613 59.4205 15.784C59.6552 15.5067 59.8258 15.08 59.9325 14.504L60.5085 11.656H64.6685L63.7725 16.2H67.1325L66.3965 19.784H63.0365L61.1165 29.416H64.1565L63.4525 33H60.6365ZM74.0023 33.384C71.6129 33.384 69.8316 32.744 68.6583 31.464C67.4849 30.1627 66.8983 28.392 66.8983 26.152C66.8983 24.808 67.1116 23.5173 67.5383 22.28C67.9649 21.0213 68.5729 19.9227 69.3623 18.984C70.1516 18.024 71.1116 17.256 72.2423 16.68C73.3729 16.104 74.6316 15.816 76.0183 15.816C76.6583 15.816 77.3303 15.8907 78.0343 16.04C78.7383 16.1893 79.3783 16.4453 79.9543 16.808C80.5516 17.1493 81.0423 17.6187 81.4263 18.216C81.8316 18.8133 82.0343 19.5707 82.0343 20.488C82.0343 21.3627 81.8316 22.152 81.4263 22.856C81.0209 23.5387 80.3916 24.136 79.5383 24.648C78.6849 25.1387 77.5863 25.5333 76.2423 25.832C74.8983 26.1093 73.2876 26.28 71.4103 26.344C71.3676 26.536 71.3463 26.6853 71.3463 26.792C71.3463 26.8987 71.3463 26.9947 71.3463 27.08C71.3463 27.8907 71.5596 28.5413 71.9863 29.032C72.4343 29.5227 73.2129 29.768 74.3223 29.768C75.0476 29.768 75.7196 29.6187 76.3383 29.32C76.9783 29 77.6716 28.3707 78.4183 27.432L81.1703 29.608C80.1249 30.9947 79.0263 31.976 77.8743 32.552C76.7436 33.1067 75.4529 33.384 74.0023 33.384ZM75.7623 19.24C74.8023 19.24 73.9809 19.56 73.2983 20.2C72.6369 20.8187 72.2103 21.672 72.0183 22.76L71.8903 23.496C73.0849 23.432 74.0556 23.3253 74.8023 23.176C75.5703 23.0267 76.1676 22.8453 76.5943 22.632C77.0209 22.3973 77.3089 22.1413 77.4583 21.864C77.6076 21.5867 77.6823 21.2773 77.6823 20.936C77.6823 20.5733 77.6183 20.2853 77.4903 20.072C77.3623 19.8373 77.2023 19.6667 77.0103 19.56C76.8183 19.432 76.6049 19.3467 76.3703 19.304C76.1569 19.2613 75.9543 19.24 75.7623 19.24ZM82.823 33L86.183 16.2H90.663L89.895 20.104H90.087C90.7057 18.7813 91.4417 17.736 92.295 16.968C93.1483 16.2 94.215 15.816 95.495 15.816C96.7537 15.816 97.7137 16.2 98.375 16.968C99.0363 17.7147 99.3777 18.76 99.399 20.104H99.559C100.178 18.8453 100.924 17.8213 101.799 17.032C102.674 16.2213 103.783 15.816 105.127 15.816C106.364 15.816 107.303 16.2 107.943 16.968C108.604 17.7147 108.935 18.7493 108.935 20.072C108.935 20.5627 108.892 21.0533 108.807 21.544C108.743 22.0133 108.658 22.4933 108.551 22.984L107.271 29.416H108.967L108.263 33H105.351C104.498 33 103.836 32.7867 103.367 32.36C102.898 31.912 102.663 31.3147 102.663 30.568C102.663 30.376 102.674 30.2053 102.695 30.056C102.716 29.8853 102.738 29.7573 102.759 29.672L104.071 23.016C104.135 22.7173 104.188 22.4187 104.231 22.12C104.295 21.8213 104.327 21.5333 104.327 21.256C104.327 20.744 104.21 20.3387 103.975 20.04C103.762 19.72 103.41 19.56 102.919 19.56C102.428 19.56 101.959 19.7093 101.511 20.008C101.063 20.2853 100.658 20.6373 100.295 21.064C99.9323 21.4907 99.6123 22.0027 99.335 22.6C99.0577 23.1973 98.8657 23.784 98.759 24.36L97.031 33H92.551L94.535 23.016C94.599 22.7173 94.6523 22.4187 94.695 22.12C94.7377 21.8213 94.759 21.544 94.759 21.288C94.759 20.7547 94.6417 20.3387 94.407 20.04C94.1937 19.72 93.8097 19.56 93.255 19.56C92.7003 19.56 92.199 19.7093 91.751 20.008C91.3243 20.2853 90.9297 20.648 90.567 21.096C89.799 22.0347 89.287 23.1227 89.031 24.36L87.303 33H82.823Z" fill="white"/>
</svg>
